<svg fill="#000000" xmlns="http://www.w3.org/2000/svg" viewBox="0 0 128 128" width="64px" height="64px"><path d="M25.5,66.2c0.4,7.7,4.8,14.2,11,17.5c4.8,9.2,11.2,18.8,17.3,25.9c2.3,2.7,5.7,4.3,9.2,4.3c0,0,0,0,0,0c3.5,0,6.8-1.6,9.2-4.3c5.8-6.7,12-15.9,16.6-24.6c0.2-0.4,0.3-0.7,0.3-1.1c6.4-3.2,10.9-9.8,11.3-17.6c0.2-3.5-0.4-6.9-1.8-9.9c0-0.1,0.1-0.3,0.1-0.4c0.2-1.6,0.3-3.1,0.3-4.6c0-21-16.2-38-36-38c-19.9,0-36,17-36,38c0,1.6,0.1,3.3,0.3,5.1C25.9,59.4,25.3,62.7,25.5,66.2z M62.9,19.2c16.1,0,29.2,13.5,30,30.5c-0.7,0-1.5,0.2-2.1,0.7c-1.2,1.1-1.4,3-0.3,4.2c2.7,3,4,7,3.8,11.2C94,73.8,87.7,80,80.1,80c-1.7,0-3,1.3-3,3s1.3,3,3,3c0.4,0,0.8,0,1.2-0.1c-4.1,7.2-9.1,14.3-13.7,19.7c-1.2,1.4-2.9,2.2-4.6,2.2c-1.8,0-3.4-0.8-4.6-2.2c-4.7-5.5-9.6-12.5-13.7-19.7c0.4,0,0.8,0.1,1.2,0.1c1.7,0,3-1.3,3-3s-1.3-3-3-3c-7.6,0-13.9-6.2-14.3-14.1c-0.2-4.2,1.1-8.1,3.8-11.2c1.1-1.2,1-3.1-0.3-4.2c-0.6-0.5-1.3-0.8-2.1-0.7C33.7,32.8,46.9,19.2,62.9,19.2z"/><path d="M67.6 92h-9.4c-1.7 0-3 1.3-3 3s1.3 3 3 3h9.4c1.7 0 3-1.3 3-3S69.3 92 67.6 92zM58.2 53h9.4c1.7 0 3-1.3 3-3s-1.3-3-3-3h-9.4c-1.7 0-3 1.3-3 3S56.6 53 58.2 53zM36 65.6c.3 5.4 4.7 9.4 9.8 9.4h7.7c3.2 0 5.5-3.4 4.5-6.6-1.9-5.8-5.6-8.4-12.5-8.4C40 60 35.7 59.8 36 65.6zM72.4 75h7.7c5.1 0 9.5-4.1 9.8-9.4.3-5.8-4-5.5-9.4-5.6-6.9-.1-10.7 2.5-12.5 8.4C66.9 71.6 69.1 75 72.4 75z"/></svg>