<?xml version="1.0"?><svg fill="#000000" xmlns="http://www.w3.org/2000/svg" viewBox="0 0 128 128" width="64px" height="64px">    <path d="M 63 13.400391 C 43.1 13.400391 27 30.400391 27 51.400391 C 27 53.000391 27.100781 54.7 27.300781 56.5 C 25.900781 59.4 25.3 62.699219 25.5 66.199219 C 25.9 73.899219 30.3 80.399219 36.5 83.699219 C 41.3 92.899219 47.700781 102.49961 53.800781 109.59961 C 56.100781 112.29961 59.5 113.90039 63 113.90039 C 66.5 113.90039 69.799219 112.29961 72.199219 109.59961 C 77.999219 102.89961 84.200781 93.7 88.800781 85 C 89.000781 84.6 89.099609 84.300391 89.099609 83.900391 C 95.499609 80.700391 100.00039 74.100781 100.40039 66.300781 C 100.60039 62.800781 99.999609 59.400391 98.599609 56.400391 C 98.599609 56.300391 98.699219 56.1 98.699219 56 C 98.899219 54.4 99 52.900391 99 51.400391 C 99 30.400391 82.8 13.400391 63 13.400391 z M 62.900391 19.199219 C 79.000391 19.199219 92.100391 32.699219 92.900391 49.699219 C 92.200391 49.699219 91.400781 49.900391 90.800781 50.400391 C 89.600781 51.500391 89.4 53.399609 90.5 54.599609 C 93.2 57.599609 94.500781 61.600781 94.300781 65.800781 C 94.000781 73.800781 87.699609 80 80.099609 80 C 78.399609 80 77.099609 81.3 77.099609 83 C 77.099609 84.7 78.399609 86 80.099609 86 C 80.499609 86 80.900781 86.000391 81.300781 85.900391 C 77.200781 93.100391 72.199609 100.19961 67.599609 105.59961 C 66.399609 106.99961 64.7 107.80078 63 107.80078 C 61.2 107.80078 59.600391 106.99961 58.400391 105.59961 C 53.700391 100.09961 48.799219 93.100391 44.699219 85.900391 C 45.099219 85.900391 45.500391 86 45.900391 86 C 47.600391 86 48.900391 84.7 48.900391 83 C 48.900391 81.3 47.600391 80 45.900391 80 C 38.300391 80 31.999609 73.800391 31.599609 65.900391 C 31.399609 61.700391 32.700391 57.799219 35.400391 54.699219 C 36.500391 53.499219 36.399609 51.6 35.099609 50.5 C 34.499609 50 33.8 49.700781 33 49.800781 C 33.7 32.800781 46.900391 19.199219 62.900391 19.199219 z M 58.199219 47 C 56.499219 47 55.199219 48.3 55.199219 50 C 55.199219 51.7 56.599219 53 58.199219 53 L 67.599609 53 C 69.299609 53 70.599609 51.7 70.599609 50 C 70.599609 48.3 69.299609 47 67.599609 47 L 58.199219 47 z M 45.5 60 C 40 60 35.7 59.799609 36 65.599609 C 36.3 70.999609 40.700781 75 45.800781 75 L 53.5 75 C 56.7 75 59 71.600391 58 68.400391 C 56.1 62.600391 52.4 60 45.5 60 z M 80.5 60 C 73.6 59.9 69.8 62.500391 68 68.400391 C 66.9 71.600391 69.100391 75 72.400391 75 L 80.099609 75 C 85.199609 75 89.600391 70.899609 89.900391 65.599609 C 90.200391 59.799609 85.9 60.1 80.5 60 z M 58.199219 92 C 56.499219 92 55.199219 93.3 55.199219 95 C 55.199219 96.7 56.499219 98 58.199219 98 L 67.599609 98 C 69.299609 98 70.599609 96.7 70.599609 95 C 70.599609 93.3 69.299609 92 67.599609 92 L 58.199219 92 z"/></svg>